:version 1.10
:name ASF
:units
  mass 1
  length 1
  angle deg
:documentation
  ASF file generated by Kaydara
:root
  axis xyz
  order  tx ty tz rx ry rz
  position 0 0 0
  orientation 0 0 0
:bonedata
  begin
    id 1
    name RightUpLegDummy
    direction -0.65628 -0.754516 0.00165102
    length 4.76918
    axis 0 0 0 xyz
  end
  begin
    id 2
    name RightUpLeg
    direction -0.145584 -0.923362 0.355256
    length 17.9961
    axis -24.7611 -13.1006 1.78531 xyz
    dof rx ry rz
  end
  begin
    id 3
    name RightLeg
    direction 0.263379 0.172355 -0.949171
    length 13.3386
    axis 89.6202 -21.1929 12.3855 xyz
    dof rx ry rz
  end
  begin
    id 4
    name RightFoot
    direction 0.224283 -0.968777 -0.105675
    length 5.86697
    axis 56.995 -39.6905 17.3365 xyz
    dof rx ry rz
  end
  begin
    id 5
    name RightToes
    direction -0.0806345 -0.9037 0.420506
    length 4.75197
    axis 146.825 -39.7828 17.6019 xyz
    dof rx ry rz
  end
  begin
    id 6
    name SpineDummy
    direction -3.39852e-014 1 9.33296e-014
    length 8.13779
    axis 0 0 0 xyz
  end
  begin
    id 7
    name Spine
    direction -0.156609 0.733703 0.661176
    length 7.14978
    axis 41.2365 5.68757 17.0844 xyz
    dof rx ry rz
  end
  begin
    id 8
    name Spine1
    direction 0 0 0
    length 0
    axis 42.8809 47.8308 -3.36039 xyz
    dof rx ry rz
  end
  begin
    id 9
    name HEadDummy
    direction 0.546431 0.701947 0.456819
    length 3.55512
    axis 42.8809 47.8308 -3.36039 xyz
  end
  begin
    id 10
    name HEad
    direction 0.23444 0.828559 0.508457
    length 7.35827
    axis 51.1864 49.2662 27.4903 xyz
    dof rx ry rz
  end
  begin
    id 11
    name LeftShoulder1Dummy
    direction 0.431183 0.475873 -0.766568
    length 2.49352
    axis 42.8809 47.8308 -3.36039 xyz
  end
  begin
    id 12
    name LeftShoulder1
    direction 0.268187 -0.383402 -0.883786
    length 4.48604
    axis -119.517 0.106469 35.1736 xyz
    dof rx ry rz
  end
  begin
    id 13
    name LeftArm
    direction 0.380567 -0.703221 -0.600541
    length 10.1142
    axis -5.41825 36.2925 7.8293 xyz
    dof rx ry rz
  end
  begin
    id 14
    name LeftForeArm
    direction 0.541071 -0.732356 -0.413396
    length 9.39839
    axis 4.65387 33.7604 7.81644 xyz
    dof rx ry rz
  end
  begin
    id 15
    name LeftHand
    direction 0.847511 -0.389379 -0.360707
    length 3.66142
    axis 7.65593 21.1436 -24.6758 xyz
    dof rx ry rz
  end
  begin
    id 16
    name RightShoulderDummy
    direction -0.692546 0.541855 0.476208
    length 2.49352
    axis 42.8809 47.8308 -3.36039 xyz
  end
  begin
    id 17
    name RightShoulder
    direction -0.870808 -0.316653 0.376065
    length 4.48602
    axis 141.571 51.133 -100.254 xyz
    dof rx ry rz
  end
  begin
    id 18
    name RightArm
    direction 0.366897 -0.87275 0.322015
    length 10.1142
    axis 92.3258 71.2036 138.917 xyz
    dof rx ry rz
  end
  begin
    id 19
    name RightForeArm
    direction 0.702487 -0.694568 0.155197
    length 9.39835
    axis 153.863 41.5092 -176.604 xyz
    dof rx ry rz
  end
  begin
    id 20
    name RightHand
    direction 0.79502 -0.601276 0.0800636
    length 3.66142
    axis 154.247 4.59222 142.9 xyz
    dof rx ry rz
  end
  begin
    id 21
    name LeftUpLegDummy
    direction 0.65628 -0.754516 0.00165102
    length 4.76919
    axis 0 0 0 xyz
  end
  begin
    id 22
    name LeftUpLeg
    direction -0.1277 -0.689368 0.713067
    length 17.9961
    axis -48.3385 -17.8675 0.791927 xyz
    dof rx ry rz
  end
  begin
    id 23
    name LeftLeg
    direction 0.109849 -0.991246 -0.0732378
    length 13.3386
    axis -2.05791 -7.30784 1.72042 xyz
    dof rx ry rz
  end
  begin
    id 24
    name LeftFoot
    direction 0.0448355 -0.272614 0.961078
    length 5.86697
    axis -18.7733 -7.89606 10.2113 xyz
    dof rx ry rz
  end
  begin
    id 25
    name LeftToes
    direction -0.18506 0.293668 0.937823
    length 4.75197
    axis 71.2267 -7.89606 10.2113 xyz
    dof rx ry rz
  end
:hierarchy
  begin
    root RightUpLegDummy SpineDummy LeftUpLegDummy
    RightUpLegDummy RightUpLeg
    RightUpLeg RightLeg
    RightLeg RightFoot
    RightFoot RightToes
    SpineDummy Spine
    Spine Spine1
    Spine1 HEadDummy LeftShoulder1Dummy RightShoulderDummy
    HEadDummy HEad
    LeftShoulder1Dummy LeftShoulder1
    LeftShoulder1 LeftArm
    LeftArm LeftForeArm
    LeftForeArm LeftHand
    RightShoulderDummy RightShoulder
    RightShoulder RightArm
    RightArm RightForeArm
    RightForeArm RightHand
    LeftUpLegDummy LeftUpLeg
    LeftUpLeg LeftLeg
    LeftLeg LeftFoot
    LeftFoot LeftToes
  end

:SAMPLES-PER-SECOND 30
:FULLY-SPECIFIED
:DEGREES
231
root  -15.921 37.2373 5.81571 -174.559 -2.47929 177.992
RightUpLeg  -2.34497 41.3795 -4.91164
RightLeg  -75.5056 -14.015 1.11148
RightFoot  22.3314 1.92921 -11.9523
RightToes  -1.27222e-014 -6.36111e-015 6.36111e-015
Spine  -18.6981 -27.5313 -20.7922
Spine1  -3.43721 -18.2963 62.7998
HEad  -0.328045 -36.2607 -1.23203
LeftShoulder1  6.36111e-015 -1.33558e-015 6.49777e-015
LeftArm  10.7523 -16.4855 15.9884
LeftForeArm  -2.44544 -36.1908 1.71742
LeftHand  -1.85506 -3.75454 -8.36465
RightShoulder  -4.77083e-015 -6.36111e-015 -3.18055e-015
RightArm  81.6333 12.7345 -47.8083
RightForeArm  -14.8548 -9.7274 -8.14879
RightHand  0.149978 1.55908 -3.58597
LeftUpLeg  25.4413 6.36595 25.9662
LeftLeg  -12.6887 -16.3408 -0.163096
LeftFoot  -2.95115 5.30426 -19.5513
LeftToes  1.27222e-014 -5.20697e-012 1.80337e-011
232
root  -17.6161 36.7812 7.01553 -176.781 4.8772 173.521
RightUpLeg  -10.5749 39.3483 -8.75439
RightLeg  -57.7624 -19.9489 5.44057
RightFoot  22.5855 3.21925 -13.8947
RightToes  -1.27222e-014 -6.36111e-015 6.36111e-015
Spine  -14.0184 -29.1737 -25.9575
Spine1  2.89076 -19.2619 57.6202
HEad  -2.87931 -39.2731 0.11649
LeftShoulder1  6.36111e-015 -1.33558e-015 6.49777e-015
LeftArm  0.792835 -12.9418 20.4322
LeftForeArm  -7.44609 -37.9479 4.04899
LeftHand  -1.99127 -4.36166 -7.01453
RightShoulder  -4.77083e-015 -6.36111e-015 -3.18055e-015
RightArm  88.1211 1.4755 -44.4273
RightForeArm  -14.8872 -13.006 -6.92408
RightHand  0.0111568 1.14219 -1.71061
LeftUpLeg  25.3779 13.4771 23.4508
LeftLeg  -5.3686 -17.1369 -1.25096
LeftFoot  -7.94607 4.91156 -21.7428
LeftToes  1.27222e-014 -5.20697e-012 1.80337e-011
233
root  -19.2154 35.9067 7.98728 -179.127 11.0379 169.935
RightUpLeg  -13.4549 38.0717 -7.26769
RightLeg  -31.5145 -23.7087 1.88137
RightFoot  18.1467 3.11848 -12.7924
RightToes  -1.27222e-014 -6.36111e-015 6.36111e-015
Spine  -12.4873 -29.7841 -28.3464
Spine1  9.03243 -19.7592 50.8891
HEad  -4.49245 -42.6372 0.13064
LeftShoulder1  6.36111e-015 -1.33558e-015 6.49777e-015
LeftArm  -11.0684 -11.9788 22.4209
LeftForeArm  -13.627 -40.7841 7.51343
LeftHand  -1.57603 -3.34834 -5.25704
RightShoulder  -4.77083e-015 -6.36111e-015 -3.18055e-015
RightArm  93.9065 -11.555 -43.3881
RightForeArm  -12.512 -13.6165 -5.23883
RightHand  -0.0565507 0.625607 -0.374772
LeftUpLeg  23.3065 18.4259 20.5881
LeftLeg  2.82817 -10.6911 -1.61179
LeftFoot  -12.5595 4.2113 -22.8376
LeftToes  1.27222e-014 -5.20697e-012 1.80337e-011
234
root  -20.7949 35.1385 8.73781 179.337 16.997 167.226
RightUpLeg  -9.93719 33.329 -1.1222
RightLeg  -7.74369 -27.0953 -2.27189
RightFoot  15.3334 4.55755 -14.5487
RightToes  -1.27222e-014 -6.36111e-015 6.36111e-015
Spine  -12.452 -29.5638 -29.8825
Spine1  12.1434 -19.1315 47.2803
HEad  -5.25713 -45.9965 -0.526904
LeftShoulder1  6.36111e-015 -1.33558e-015 6.49777e-015
LeftArm  -21.0906 -9.11381 18.2997
LeftForeArm  -24.5702 -45.1743 14.6611
LeftHand  -1.1648 -2.3615 -3.99296
RightShoulder  -4.77083e-015 -6.36111e-015 -3.18055e-015
RightArm  95.1484 -20.1279 -52.4377
RightForeArm  -4.82663 -6.75543 0.0657932
RightHand  0.0316545 -0.552612 0.522848
LeftUpLeg  19.8406 22.5396 17.6491
LeftLeg  9.08781 -4.59934 -0.312187
LeftFoot  -14.5893 3.71577 -22.3512
LeftToes  1.27222e-014 -5.20697e-012 1.80337e-011
235
root  -22.3585 34.9371 9.31742 178.199 24.0753 165.629
RightUpLeg  -2.52092 22.4404 6.82509
RightLeg  8.78446 -31.7313 -7.1014
RightFoot  10.2579 4.16056 -12.7094
RightToes  -1.27222e-014 -6.36111e-015 6.36111e-015
Spine  -12.5249 -29.1986 -31.6108
Spine1  12.049 -18.1546 47.7179
HEad  -5.99219 -47.6782 -0.469872
LeftShoulder1  6.36111e-015 -1.33558e-015 6.49777e-015
LeftArm  -24.7905 -6.60727 10.2606
LeftForeArm  -39.5615 -48.7197 25.4141
LeftHand  -1.19966 -2.43441 -4.14825
RightShoulder  -4.77083e-015 -6.36111e-015 -3.18055e-015
RightArm  94.3489 -24.2686 -67.2085
RightForeArm  4.79728 0.46533 6.39026
RightHand  -0.332029 -1.14055 3.87321
LeftUpLeg  17.8099 27.2074 16.9934
LeftLeg  11.4883 -1.28723 0.890898
LeftFoot  -14.4291 3.36233 -20.058
LeftToes  1.27222e-014 -5.20697e-012 1.80337e-011
236
root  -23.7482 35.4427 9.66268 177.976 32.0125 165.402
RightUpLeg  2.62342 9.18188 12.0237
RightLeg  14.675 -28.8389 -7.69417
RightFoot  5.83529 3.56766 -10.3068
RightToes  -1.27222e-014 -6.36111e-015 6.36111e-015
Spine  -13.4435 -30 -32.4702
Spine1  9.81383 -18.2022 50.2275
HEad  -6.28161 -46.6959 0.162163
LeftShoulder1  6.36111e-015 -1.33558e-015 6.49777e-015
LeftArm  -23.7022 -5.99546 3.80551
LeftForeArm  -49.2839 -50.4474 33.7639
LeftHand  -1.30682 -2.59115 -5.06003
RightShoulder  -4.77083e-015 -6.36111e-015 -3.18055e-015
RightArm  94.9589 -29.7598 -74.798
RightForeArm  7.29252 0.602872 7.50355
RightHand  -1.02971 -0.298803 8.35548
LeftUpLeg  18.0534 31.6808 18.8516
LeftLeg  9.13501 4.09736 2.23858
LeftFoot  -12.2678 3.37645 -18.0697
LeftToes  1.27222e-014 -5.20697e-012 1.80337e-011
237
root  -24.9154 36.3948 9.90522 178.775 40.6637 165.906
RightUpLeg  1.51312 1.10718 13.3571
RightLeg  11.2738 -20.6428 -4.01214
RightFoot  8.69621 4.39775 -12.7685
RightToes  -1.27222e-014 -6.36111e-015 6.36111e-015
Spine  -14.6502 -32.3893 -33.2176
Spine1  6.65521 -19.5915 53.2679
HEad  -4.75397 -43.9521 -0.432016
LeftShoulder1  6.36111e-015 -1.33558e-015 6.49777e-015
LeftArm  -20.4342 -7.10554 -0.229541
LeftForeArm  -49.456 -51.4986 35.4853
LeftHand  -1.14664 -2.05842 -5.4165
RightShoulder  -4.77083e-015 -6.36111e-015 -3.18055e-015
RightArm  95.9971 -36.1151 -74.1574
RightForeArm  4.73985 -0.675771 6.11603
RightHand  -1.4992 2.53242 10.1291
LeftUpLeg  18.9413 34.7403 21.0177
LeftLeg  3.43186 11.1588 2.47952
LeftFoot  -8.41575 3.66258 -16.551
LeftToes  1.27222e-014 -5.20697e-012 1.80337e-011
238
root  -25.9056 37.6327 10.0189 179.848 50.6479 167.704
RightUpLeg  -1.95088 -2.1412 12.3832
RightLeg  3.07398 -19.1679 -3.04007
RightFoot  12.3213 4.47826 -13.7766
RightToes  -1.27222e-014 -6.36111e-015 6.36111e-015
Spine  -15.6774 -34.4616 -33.6591
Spine1  3.72931 -20.8333 57.1488
HEad  -1.64885 -40.5444 -2.81064
LeftShoulder1  6.36111e-015 -1.33558e-015 6.49777e-015
LeftArm  -16.0654 -8.87651 -3.57654
LeftForeArm  -44.3402 -51.7044 32.147
LeftHand  -0.957805 -1.47333 -5.55215
RightShoulder  -4.77083e-015 -6.36111e-015 -3.18055e-015
RightArm  96.0855 -42.3651 -66.9707
RightForeArm  0.536977 -2.19476 3.04192
RightHand  -1.74998 6.45214 8.89616
LeftUpLeg  21.7817 35.1051 22.7489
LeftLeg  -4.67894 11.1179 -0.115354
LeftFoot  -5.79591 3.54761 -14.4855
LeftToes  1.27222e-014 -5.20697e-012 1.80337e-011
239
root  -26.8098 38.6496 9.9682 -179.614 62.6048 170.644
RightUpLeg  -3.5793 -2.17965 10.5378
RightLeg  -8.87749 -24.7986 -2.09069
RightFoot  9.62708 5.4364 -14.9753
RightToes  -1.27222e-014 -6.36111e-015 6.36111e-015
Spine  -16.1567 -35.52 -34.0974
Spine1  2.54603 -21.5269 60.691
HEad  1.38377 -36.4458 -5.30629
LeftShoulder1  6.36111e-015 -1.33558e-015 6.49777e-015
LeftArm  -11.5666 -10.6231 -5.98718
LeftForeArm  -39.3853 -51.4283 28.5141
LeftHand  -1.09212 -1.72166 -6.3295
RightShoulder  -4.77083e-015 -6.36111e-015 -3.18055e-015
RightArm  94.3441 -46.7228 -56.5279
RightForeArm  -4.19495 -5.23756 -1.61205
RightHand  -1.87691 8.21093 8.07347
LeftUpLeg  25.7979 30.7509 21.1081
LeftLeg  -11.0432 2.21599 -1.68021
LeftFoot  -7.0201 3.37003 -14.4089
LeftToes  1.27222e-014 -5.20697e-012 1.80337e-011
240
root  -27.6177 39.1755 9.72996 -179.278 76.5258 174.058
RightUpLeg  -4.43397 0.771487 8.5188
RightLeg  -24.0958 -26.0502 1.12323
RightFoot  7.64157 7.15341 -17.9877
RightToes  -1.27222e-014 -6.36111e-015 6.36111e-015
Spine  -17.035 -35.8448 -33.6652
Spine1  2.8165 -21.9265 61.8114
HEad  3.41233 -31.8272 -6.47924
LeftShoulder1  6.36111e-015 -1.33558e-015 6.49777e-015
LeftArm  -7.42791 -13.2468 -6.10112
LeftForeArm  -36.8116 -51.8594 27.3673
LeftHand  -1.34784 -2.39042 -6.93167
RightShoulder  -4.77083e-015 -6.36111e-015 -3.18055e-015
RightArm  92.3043 -47.7471 -46.7845
RightForeArm  -8.6529 -8.48305 -6.12949
RightHand  -1.90881 7.77798 9.4046
LeftUpLeg  28.0244 22.4993 13.6118
LeftLeg  -11.7138 -4.89612 -1.24291
LeftFoot  -9.4695 3.47303 -16.3937
LeftToes  1.27222e-014 -5.20697e-012 1.80337e-011
241
root  -28.2359 39.4494 9.25346 -26.9243 87.4441 -30.9714
RightUpLeg  -5.39725 4.13329 7.74025
RightLeg  -40.7001 -20.9552 2.21633
RightFoot  10.5479 6.86117 -17.8348
RightToes  -1.27222e-014 -6.36111e-015 6.36111e-015
Spine  -19.8424 -34.4608 -30.2143
Spine1  3.09662 -21.2465 60.9689
HEad  4.74908 -27.1047 -7.16308
LeftShoulder1  6.36111e-015 -1.33558e-015 6.49777e-015
LeftArm  -4.36606 -16.7034 -3.89354
LeftForeArm  -36.8263 -52.7343 28.3562
LeftHand  -1.41545 -2.64041 -6.69129
RightShoulder  -4.77083e-015 -6.36111e-015 -3.18055e-015
RightArm  92.3469 -43.4845 -44.3381
RightForeArm  -10.7423 -6.73869 -8.25903
RightHand  -2.04471 8.08117 11.3501
LeftUpLeg  29.9676 20.7673 9.76883
LeftLeg  -7.37608 -8.29345 -1.02605
LeftFoot  -8.64491 3.52489 -16.0776
LeftToes  1.27222e-014 -5.20697e-012 1.80337e-011
242
root  -28.6878 39.2842 8.66173 -8.61055 70.2404 -11.0215
RightUpLeg  -6.20719 6.10853 8.99487
RightLeg  -57.575 -16.1146 0.873302
RightFoot  11.6719 5.92514 -16.2726
RightToes  -1.27222e-014 -6.36111e-015 6.36111e-015
Spine  -22.9951 -31.5234 -25.6033
Spine1  3.16576 -19.6717 59.8332
HEad  5.89114 -21.7369 -8.82567
LeftShoulder1  6.36111e-015 -1.33558e-015 6.49777e-015
LeftArm  -3.58432 -19.2179 0.263461
LeftForeArm  -37.5156 -53.1052 29.2365
LeftHand  -1.47248 -2.83355 -6.57931
RightShoulder  -4.77083e-015 -6.36111e-015 -3.18055e-015
RightArm  92.7136 -35.5499 -43.8332
RightForeArm  -13.0553 -4.26499 -9.88905
RightHand  -2.166 9.30385 11.9816
LeftUpLeg  31.5851 24.7566 11.5179
LeftLeg  -1.16308 -9.97888 -1.33319
LeftFoot  -4.85094 3.71985 -14.6765
LeftToes  1.27222e-014 -5.20697e-012 1.80337e-011
243
root  -28.9267 38.6409 8.1581 -6.7812 52.5211 -7.79753
RightUpLeg  -6.92411 7.97241 11.4059
RightLeg  -72.5105 -13.3545 -1.09649
RightFoot  11.0311 7.00882 -18.1782
RightToes  -1.27222e-014 -6.36111e-015 6.36111e-015
Spine  -24.4741 -29.0573 -23.0667
Spine1  3.18575 -18.2488 58.431
HEad  6.7723 -15.0631 -10.9724
LeftShoulder1  6.36111e-015 -1.33558e-015 6.49777e-015
LeftArm  -4.74926 -20.6313 6.62531
LeftForeArm  -35.5741 -52.7761 27.5788
LeftHand  -1.69693 -3.46698 -6.92689
RightShoulder  -4.77083e-015 -6.36111e-015 -3.18055e-015
RightArm  92.3786 -25.21 -42.9131
RightForeArm  -17.006 -2.64988 -11.7603
RightHand  -2.02595 8.72067 9.99034
LeftUpLeg  32.9527 28.6197 13.0436
LeftLeg  2.83769 -9.61676 -1.49623
LeftFoot  -2.10892 3.03499 -10.8982
LeftToes  1.27222e-014 -5.20697e-012 1.80337e-011
244
root  -28.9516 37.7352 7.79202 -6.0188 35.7123 -4.81526
RightUpLeg  -7.90232 9.84719 13.5952
RightLeg  -82.8867 -12.8901 0.150405
RightFoot  13.8226 8.33323 -20.8767
RightToes  -1.27222e-014 -6.36111e-015 6.36111e-015
Spine  -24.3153 -27.4685 -22.2041
Spine1  3.0872 -17.1467 56.1729
HEad  7.05349 -7.97332 -11.9167
LeftShoulder1  6.36111e-015 -1.33558e-015 6.49777e-015
LeftArm  -6.91765 -22.7435 14.8906
LeftForeArm  -28.555 -51.834 22.2482
LeftHand  -1.77202 -3.6985 -6.92382
RightShoulder  -4.77083e-015 -6.36111e-015 -3.18055e-015
RightArm  90.9517 -15.0504 -42.7715
RightForeArm  -20.8417 0.912712 -14.7824
RightHand  -1.60721 6.63553 6.54718
LeftUpLeg  34.7097 31.8125 12.1602
LeftLeg  2.44457 -5.83725 -0.861309
LeftFoot  -5.8743 0.937146 -3.73555
LeftToes  1.27222e-014 -5.20697e-012 1.80337e-011
